HIERARCHY
ROOT hip
{
  OFFSET 0 0 0
  CHANNELS 6 Xposition Yposition Zposition Zrotation Yrotation Xrotation
  JOINT abdomen
  {
    OFFSET 0 20.6881 -0.73152
    CHANNELS 3 Zrotation Xrotation Yrotation
    JOINT chest
    {
      OFFSET 0 11.7043 -0.48768
      CHANNELS 3 Zrotation Xrotation Yrotation
      JOINT neck
      {
        OFFSET 0 22.1894 -2.19456
        CHANNELS 3 Zrotation Xrotation Yrotation
        JOINT head
        {
          OFFSET -0.24384 7.07133 1.2192
          CHANNELS 3 Zrotation Xrotation Yrotation
          JOINT leftEye
          {
            OFFSET 4.14528 8.04674 8.04672
            CHANNELS 3 Zrotation Xrotation Yrotation
            End Site
            {
              OFFSET 1 0 0
            }
          }
          JOINT rightEye
          {
            OFFSET -3.6576 8.04674 8.04672
            CHANNELS 3 Zrotation Xrotation Yrotation
            End Site
            {
              OFFSET 1 0 0
            }
          }
        }
      }
      JOINT rCollar
      {
        OFFSET -2.68224 19.2634 -4.8768
        CHANNELS 3 Zrotation Xrotation Yrotation
        JOINT rShldr
        {
          OFFSET -8.77824 -1.95073 1.46304
          CHANNELS 3 Zrotation Xrotation Yrotation
          JOINT rForeArm
          {
            OFFSET -28.1742 -1.7115 0.48768
            CHANNELS 3 Zrotation Xrotation Yrotation
            JOINT rHand
            {
              OFFSET -22.5879 0.773209 7.07136
              CHANNELS 3 Zrotation Xrotation Yrotation
              JOINT rThumb1
              {
                OFFSET -1.2192 -0.487915 3.41376
                CHANNELS 3 Zrotation Xrotation Yrotation
                JOINT rThumb2
                {
                  OFFSET -3.37035 -0.52449 3.41376
                  CHANNELS 3 Zrotation Xrotation Yrotation
                  End Site
                  {
                    OFFSET -1.78271 -1.18214 1.43049
                  }
                }
              }
              JOINT rIndex1
              {
                OFFSET -7.75947 0.938293 5.60832
                CHANNELS 3 Zrotation Xrotation Yrotation
                JOINT rIndex2
                {
                  OFFSET -2.54057 -0.884171 1.56538
                  CHANNELS 3 Zrotation Xrotation Yrotation
                  End Site
                  {
                    OFFSET -1.62519 -0.234802 1.16502
                  }
                }
              }
              JOINT rMid1
              {
                OFFSET -8.24714 1.18213 3.41376
                CHANNELS 3 Zrotation Xrotation Yrotation
                JOINT rMid2
                {
                  OFFSET -3.10165 -0.590103 1.0647
                  CHANNELS 3 Zrotation Xrotation Yrotation
                  End Site
                  {
                    OFFSET -2.48547 -0.328903 0.83742
                  }
                }
              }
              JOINT rRing1
              {
                OFFSET -8.82822 0.546677 1.51678
                CHANNELS 3 Zrotation Xrotation Yrotation
                JOINT rRing2
                {
                  OFFSET -2.60934 -0.819778 -0.0198488
                  CHANNELS 3 Zrotation Xrotation Yrotation
                  End Site
                  {
                    OFFSET -2.33842 -0.294052 0.168128
                  }
                }
              }
              JOINT rPinky1
              {
                OFFSET -8.27202 -0.0477905 -0.4584
                CHANNELS 3 Zrotation Xrotation Yrotation
                JOINT rPinky2
                {
                  OFFSET -1.82734 -0.647385 -0.700984
                  CHANNELS 3 Zrotation Xrotation Yrotation
                  End Site
                  {
                    OFFSET -1.69225 -0.51767 -0.607171
                  }
                }
              }
            }
          }
        }
      }
      JOINT lCollar
      {
        OFFSET 2.68224 19.2634 -4.8768
        CHANNELS 3 Zrotation Xrotation Yrotation
        JOINT lShldr
        {
          OFFSET 8.77824 -1.95073 1.46304
          CHANNELS 3 Zrotation Xrotation Yrotation
          JOINT lForeArm
          {
            OFFSET 28.1742 -1.7115 0.48768
            CHANNELS 3 Zrotation Xrotation Yrotation
            JOINT lHand
            {
              OFFSET 22.5879 0.773209 7.07136
              CHANNELS 3 Zrotation Xrotation Yrotation
              JOINT lThumb1
              {
                OFFSET 1.2192 -0.487915 3.41376
                CHANNELS 3 Zrotation Xrotation Yrotation
                JOINT lThumb2
                {
                  OFFSET 3.37035 -0.52449 3.41376
                  CHANNELS 3 Zrotation Xrotation Yrotation
                  End Site
                  {
                    OFFSET 1.78271 -1.18214 1.43049
                  }
                }
              }
              JOINT lIndex1
              {
                OFFSET 7.75947 0.938293 5.60832
                CHANNELS 3 Zrotation Xrotation Yrotation
                JOINT lIndex2
                {
                  OFFSET 2.54057 -0.884171 1.56538
                  CHANNELS 3 Zrotation Xrotation Yrotation
                  End Site
                  {
                    OFFSET 1.62519 -0.234802 1.16502
                  }
                }
              }
              JOINT lMid1
              {
                OFFSET 8.24714 1.18213 3.41376
                CHANNELS 3 Zrotation Xrotation Yrotation
                JOINT lMid2
                {
                  OFFSET 3.10165 -0.590103 1.0647
                  CHANNELS 3 Zrotation Xrotation Yrotation
                  End Site
                  {
                    OFFSET 2.48547 -0.328903 0.83742
                  }
                }
              }
              JOINT lRing1
              {
                OFFSET 8.82822 0.546677 1.51678
                CHANNELS 3 Zrotation Xrotation Yrotation
                JOINT lRing2
                {
                  OFFSET 2.60934 -0.819778 -0.0198488
                  CHANNELS 3 Zrotation Xrotation Yrotation
                  End Site
                  {
                    OFFSET 2.33842 -0.294052 0.168128
                  }
                }
              }
              JOINT lPinky1
              {
                OFFSET 8.27202 -0.0477905 -0.4584
                CHANNELS 3 Zrotation Xrotation Yrotation
                JOINT lPinky2
                {
                  OFFSET 1.82734 -0.647385 -0.700984
                  CHANNELS 3 Zrotation Xrotation Yrotation
                  End Site
                  {
                    OFFSET 1.69225 -0.51767 -0.607171
                  }
                }
              }
            }
          }
        }
      }
    }
  }
  JOINT rButtock
  {
    OFFSET -8.77824 4.35084 1.2192
    CHANNELS 3 Zrotation Xrotation Yrotation
    JOINT rThigh
    {
      OFFSET 0 -1.70687 -2.19456
      CHANNELS 3 Zrotation Xrotation Yrotation
      JOINT rShin
      {
        OFFSET 0 -36.8199 0.73152
        CHANNELS 3 Zrotation Xrotation Yrotation
        JOINT rFoot
        {
          OFFSET 0.73152 -45.1104 -5.12064
          CHANNELS 3 Zrotation Xrotation Yrotation
          End Site
          {
            OFFSET -1.1221 -3.69964 12.103
          }
        }
      }
    }
  }
  JOINT lButtock
  {
    OFFSET 8.77824 4.35084 1.2192
    CHANNELS 3 Zrotation Xrotation Yrotation
    JOINT lThigh
    {
      OFFSET 0 -1.70687 -2.19456
      CHANNELS 3 Zrotation Xrotation Yrotation
      JOINT lShin
      {
        OFFSET 0 -36.8199 0.73152
        CHANNELS 3 Zrotation Xrotation Yrotation
        JOINT lFoot
        {
          OFFSET -0.73152 -45.1104 -5.12064
          CHANNELS 3 Zrotation Xrotation Yrotation
          End Site
          {
            OFFSET 1.1221 -3.69964 12.103
          }
        }
      }
    }
  }
}
MOTION
Frames:	4
Frame Time:	0.00833333
15.8958 84.0726 -217.951 -526.571 84.6368 559.204 4.33947 4.87147 4.17085 0.547413 -8.86901 1.3632 -11.0502 14.1431 -8.30673 21.8308 -23.7252 -11.3064 -0.0 0.0 0.0 -0.0 0.0 0.0 -8.71298e-14 -8.1042e-13 2.88527e-13 69.3984 36.2853 8.05587 -16.7495 -9.40387 31.2681 -0.414403 17.9983 2.61699 1.41198e-10 1.78357e-09 -6.85948e-10 2.34861e-10 3.08418e-09 -1.1911e-09 1.41202e-10 1.78357e-09 -6.85969e-10 7.73091 5.47488 0.417314 1.41198e-10 1.78357e-09 -6.85956e-10 2.90554 0.965183 0.102902 1.41204e-10 1.78357e-09 -6.85955e-10 10.2786 0.731801 0.0259123 1.41197e-10 1.78357e-09 -6.8595e-10 2.22167 -0.733487 -0.20892 -8.71911e-14 -8.10421e-13 2.88345e-13 -87.47 28.8448 25.3846 17.9354 -10.6175 -33.8753 0.229529 13.5201 -1.93655 -1.30478e-09 1.40892e-09 1.72527e-09 -2.23861e-09 2.44444e-09 3.00576e-09 -1.30478e-09 1.40892e-09 1.72527e-09 -7.73091 5.47488 -0.417314 -1.30478e-09 1.40892e-09 1.72527e-09 -2.90554 0.965183 -0.102902 -1.30478e-09 1.40892e-09 1.72527e-09 -10.2786 0.731801 -0.0259123 -1.30477e-09 1.40892e-09 1.72525e-09 -2.22167 -0.733487 0.20892 -2.03217e-16 0.0 -3.88251e-19 23.8516 -10.1368 20.0257 0.159839 25.7702 0.982556 -7.43148 -11.2564 -30.4027 2.03217e-16 0.0 3.88251e-19 3.97076 -41.0965 -5.56461 0.619492 53.251 -1.67877 5.56196 -11.6268 16.433
16.8391 84.2129 -218.06 -527.308 85.1729 558.291 4.17401 5.06048 4.27562 0.441045 -8.84568 1.36736 -11.0271 14.053 -8.22746 21.6694 -23.8799 -11.1514 -0.0 0.0 0.0 -0.0 0.0 0.0 -6.79146e-14 -7.36762e-13 2.90064e-13 68.4009 37.3324 9.61519 -16.9955 -9.64708 31.8008 -0.396912 17.6256 2.55919 -2.40576e-10 1.46864e-09 -5.99747e-10 -4.23813e-10 2.5413e-09 -1.03559e-09 -2.40575e-10 1.46864e-09 -5.99764e-10 7.73091 5.47488 0.417314 -2.40577e-10 1.46864e-09 -5.99752e-10 2.90554 0.965183 0.102902 -2.4057e-10 1.46864e-09 -5.99751e-10 10.2786 0.731801 0.0259123 -2.40576e-10 1.46864e-09 -5.99744e-10 2.22167 -0.733487 -0.20892 -6.79748e-14 -7.36763e-13 2.89903e-13 -87.9396 28.6358 25.7734 17.8562 -10.533 -33.6985 0.236795 13.7287 -1.9676 -1.15389e-09 1.25416e-09 1.47545e-09 -1.97996e-09 2.17516e-09 2.57063e-09 -1.1539e-09 1.25416e-09 1.47545e-09 -7.73091 5.47488 -0.417314 -1.1539e-09 1.25416e-09 1.47545e-09 -2.90554 0.965183 -0.102902 -1.1539e-09 1.25416e-09 1.47545e-09 -10.2786 0.731801 -0.0259123 -1.15389e-09 1.25416e-09 1.47544e-09 -2.22167 -0.733487 0.20892 -2.03217e-16 0.0 -3.88251e-19 23.0887 -9.01041 19.0418 0.143364 24.8108 1.02972 -7.03067 -11.0692 -29.457 2.03217e-16 0.0 3.88251e-19 3.20958 -41.0226 -6.29494 0.525395 50.7095 -1.59856 5.88841 -12.2352 17.076
17.7646 84.3642 -218.155 -527.911 85.7382 557.631 3.98811 5.23704 4.35504 0.319709 -8.81239 1.36473 -10.9774 13.9724 -8.14962 21.485 -24.0458 -11.0043 -0.0 0.0 0.0 -0.0 0.0 0.0 -4.36951e-14 -6.1594e-13 2.72624e-13 67.3838 38.4073 11.1505 -17.2527 -9.90535 32.3639 -0.375784 17.1641 2.48795 -6.05001e-10 1.01047e-09 -5.05312e-10 -1.05239e-09 1.7506e-09 -8.65888e-10 -6.05001e-10 1.01047e-09 -5.05324e-10 7.73091 5.47488 0.417314 -6.05001e-10 1.01047e-09 -5.05314e-10 2.90554 0.965183 0.102902 -6.04995e-10 1.01047e-09 -5.05314e-10 10.2786 0.731801 0.0259123 -6.05e-10 1.01047e-09 -5.05304e-10 2.22167 -0.733487 -0.20892 -4.37532e-14 -6.15941e-13 2.72476e-13 -88.3576 28.4423 26.1198 17.7698 -10.4413 -33.506 0.245964 13.9844 -2.00575 -8.90764e-10 1.00397e-09 1.11503e-09 -1.52834e-09 1.74021e-09 1.9424e-09 -8.9077e-10 1.00396e-09 1.11504e-09 -7.73091 5.47488 -0.417314 -8.90767e-10 1.00396e-09 1.11503e-09 -2.90554 0.965183 -0.102902 -8.9077e-10 1.00396e-09 1.11503e-09 -10.2786 0.731801 -0.0259123 -8.90758e-10 1.00396e-09 1.11502e-09 -2.22167 -0.733487 0.20892 -2.03217e-16 0.0 -3.88251e-19 22.272 -7.77956 17.9786 0.125841 23.6846 1.06862 -6.62737 -10.9495 -28.4313 2.03217e-16 0.0 3.88251e-19 2.42259 -40.8295 -7.13043 0.442023 48.0082 -1.52675 6.17372 -12.7704 17.6397
18.7006 84.5601 -218.212 -526.679 86.2389 558.785 3.88218 5.32039 4.46743 0.206085 -8.77742 1.37592 -10.9177 13.9274 -8.05274 21.3304 -24.2027 -10.819 -0.0 0.0 0.0 -0.0 0.0 0.0 -2.46235e-14 -5.06379e-13 2.43362e-13 66.4323 39.3893 12.57 -17.5085 -10.1677 32.9266 -0.352627 16.6519 2.40918 -7.84355e-10 4.99926e-10 -4.40081e-10 -1.36135e-09 8.68616e-10 -7.49509e-10 -7.84357e-10 4.99931e-10 -4.4009e-10 7.73091 5.47488 0.417314 -7.84356e-10 4.99928e-10 -4.40081e-10 2.90554 0.965183 0.102902 -7.8435e-10 4.99929e-10 -4.40081e-10 10.2786 0.731801 0.0259123 -7.84354e-10 4.99929e-10 -4.40071e-10 2.22167 -0.733487 -0.20892 -2.46768e-14 -5.06379e-13 2.43213e-13 -88.7451 28.3122 26.4501 17.6782 -10.345 -33.3024 0.254344 14.2128 -2.03992 -5.40449e-10 7.19578e-10 7.41947e-10 -9.263e-10 1.24594e-09 1.29106e-09 -5.40457e-10 7.19573e-10 7.4195e-10 -7.73091 5.47488 -0.417314 -5.40453e-10 7.19573e-10 7.41941e-10 -2.90554 0.965183 -0.102902 -5.40455e-10 7.19572e-10 7.41947e-10 -10.2786 0.731801 -0.0259123 -5.40442e-10 7.19575e-10 7.41938e-10 -2.22167 -0.733487 0.20892 -2.03217e-16 0.0 -3.88251e-19 21.5429 -6.39869 17.0891 0.114358 22.2456 1.09347 -6.07657 -10.6714 -27.3775 2.03217e-16 0.0 3.88251e-19 1.73652 -40.6217 -8.11667 0.37069 45.2787 -1.47244 6.4472 -13.286 18.1372
